%
M48
M72
T01C0.01000
T02C0.01378
T03C0.01600
T04C0.04000
T05C0.12598
T06C0.13000
%
T01
X27425Y19300
X47425Y32425
X64300Y33675
X64300Y18675
X93675Y14300
X119925Y19925
X110550Y28675
X120550Y33675
X137425Y34300
X151175Y20550
X177425Y39300
X186800Y14925
X227425Y18050
X227425Y66800
X191125Y97975
X187375Y97975
X183625Y97975
X179875Y97975
X176125Y97975
X172375Y97975
X168625Y97975
X164875Y97975
X161125Y97975
X157375Y97975
X153625Y97975
X149875Y97975
X146125Y97975
X142375Y97975
X138625Y97975
X134875Y97975
X131175Y98050
X127425Y98050
X123675Y98050
X119925Y98050
X116175Y98050
X112425Y98050
X108675Y98050
X104925Y98050
X101175Y98050
X97425Y98050
X93675Y98050
X89925Y98050
X86175Y98050
X82425Y98050
X78675Y98050
X74925Y98050
X71175Y98050
X67425Y98050
X63675Y98050
X59925Y98050
X56175Y98050
X52425Y98050
X42425Y98050
X38675Y98050
X47425Y70550
X27425Y66800
X227425Y115550
T02
X157425Y72425
X151800Y72425
X150550Y68050
X145550Y68050
X120550Y68675
X120550Y83675
T03
X94984Y69743
X89669Y69743
X84354Y69743
X84354Y64428
X89669Y64428
X94984Y64428
X94984Y59113
X89669Y59113
X84354Y59113
X120550Y43675
X120550Y38675
X145550Y22425
X186800Y51800
X160550Y68050
X155550Y68050
T04
X136813Y70550
X136813Y60550
X136813Y50550
X136813Y80550
X199925Y77600
X209925Y72200
X199925Y66800
X209925Y61400
X199925Y56000
X209925Y50600
X199925Y45200
X209925Y83000
X199925Y88400
T05
X29925Y95550
X29925Y38050
T06
X204925Y17500
X204925Y116100
M30
