G75*
%MOIN*%
%OFA0B0*%
%FSLAX25Y25*%
%IPPOS*%
%LPD*%
%AMOC8*
5,1,8,0,0,1.08239X$1,22.5*
%
%ADD10OC8,0.06000*%
%ADD11C,0.20000*%
%ADD12R,0.19685X0.19685*%
%ADD13C,0.03600*%
%ADD14C,0.01000*%
%ADD15C,0.02600*%
%ADD16C,0.01600*%
%ADD17C,0.03200*%
%ADD18C,0.02978*%
D10*
X0136813Y0050550D03*
X0136813Y0060550D03*
X0136813Y0070550D03*
X0136813Y0080550D03*
X0199925Y0077600D03*
X0209925Y0072200D03*
X0199925Y0066800D03*
X0209925Y0061400D03*
X0199925Y0056000D03*
X0209925Y0050600D03*
X0199925Y0045200D03*
X0209925Y0083000D03*
X0199925Y0088400D03*
D11*
X0204925Y0116100D03*
X0204925Y0017500D03*
D12*
X0089669Y0064428D03*
D13*
X0089669Y0064428D03*
X0084354Y0064428D03*
X0084354Y0069743D03*
X0089669Y0069743D03*
X0094984Y0069743D03*
X0094984Y0064428D03*
X0094984Y0059113D03*
X0089669Y0059113D03*
X0084354Y0059113D03*
D14*
X0089669Y0064428D02*
X0087425Y0066800D01*
X0084925Y0069300D01*
X0084354Y0069743D01*
D15*
X0047425Y0070550D03*
X0027425Y0066800D03*
X0038675Y0098050D03*
X0042425Y0098050D03*
X0052425Y0098050D03*
X0056175Y0098050D03*
X0059925Y0098050D03*
X0063675Y0098050D03*
X0067425Y0098050D03*
X0071175Y0098050D03*
X0074925Y0098050D03*
X0078675Y0098050D03*
X0082425Y0098050D03*
X0086175Y0098050D03*
X0089925Y0098050D03*
X0093675Y0098050D03*
X0097425Y0098050D03*
X0101175Y0098050D03*
X0104925Y0098050D03*
X0108675Y0098050D03*
X0112425Y0098050D03*
X0116175Y0098050D03*
X0119925Y0098050D03*
X0123675Y0098050D03*
X0127425Y0098050D03*
X0131175Y0098050D03*
X0134875Y0097975D03*
X0138625Y0097975D03*
X0142375Y0097975D03*
X0146125Y0097975D03*
X0149875Y0097975D03*
X0153625Y0097975D03*
X0157375Y0097975D03*
X0161125Y0097975D03*
X0164875Y0097975D03*
X0168625Y0097975D03*
X0172375Y0097975D03*
X0176125Y0097975D03*
X0179875Y0097975D03*
X0183625Y0097975D03*
X0187375Y0097975D03*
X0191125Y0097975D03*
X0227425Y0115550D03*
X0227425Y0066800D03*
X0177425Y0039300D03*
X0151175Y0020550D03*
X0137425Y0034300D03*
X0120550Y0033675D03*
X0110550Y0028675D03*
X0119925Y0019925D03*
X0093675Y0014300D03*
X0064300Y0018675D03*
X0047425Y0032425D03*
X0064300Y0033675D03*
X0027425Y0019300D03*
X0186800Y0014925D03*
X0227425Y0018050D03*
D16*
X0026345Y0013841D02*
X0023213Y0016338D01*
X0020716Y0019470D01*
X0018979Y0023078D01*
X0018087Y0026983D01*
X0017975Y0028985D01*
X0017975Y0098675D01*
X0022453Y0098675D01*
X0021826Y0097161D01*
X0021826Y0093939D01*
X0023059Y0090962D01*
X0025337Y0088684D01*
X0028314Y0087451D01*
X0031536Y0087451D01*
X0034513Y0088684D01*
X0036791Y0090962D01*
X0038024Y0093939D01*
X0038024Y0097161D01*
X0037397Y0098675D01*
X0194300Y0098675D01*
X0194300Y0110903D01*
X0195483Y0108855D01*
X0197680Y0106658D01*
X0200370Y0105104D01*
X0203371Y0104300D01*
X0206478Y0104300D01*
X0209480Y0105104D01*
X0212170Y0106658D01*
X0214367Y0108855D01*
X0215921Y0111545D01*
X0216725Y0114546D01*
X0216725Y0117653D01*
X0215921Y0120655D01*
X0214367Y0123345D01*
X0212713Y0125000D01*
X0236175Y0125000D01*
X0236356Y0124976D01*
X0236670Y0124795D01*
X0236851Y0124481D01*
X0236875Y0124300D01*
X0236875Y0009300D01*
X0236851Y0009119D01*
X0236670Y0008805D01*
X0236356Y0008624D01*
X0236175Y0008600D01*
X0212713Y0008600D01*
X0214367Y0010255D01*
X0215921Y0012945D01*
X0216725Y0015946D01*
X0216725Y0019053D01*
X0215921Y0022055D01*
X0214367Y0024745D01*
X0212170Y0026942D01*
X0209480Y0028496D01*
X0206478Y0029300D01*
X0203371Y0029300D01*
X0200370Y0028496D01*
X0197680Y0026942D01*
X0195483Y0024745D01*
X0193929Y0022055D01*
X0193125Y0019053D01*
X0193125Y0015946D01*
X0193929Y0012945D01*
X0195483Y0010255D01*
X0197137Y0008600D01*
X0180175Y0008600D01*
X0179994Y0008624D01*
X0179680Y0008805D01*
X0179499Y0009119D01*
X0179475Y0009300D01*
X0179475Y0015046D01*
X0179475Y0015452D01*
X0179475Y0015452D01*
X0178323Y0017448D01*
X0176327Y0018600D01*
X0100023Y0018600D01*
X0098027Y0017448D01*
X0096875Y0015452D01*
X0096875Y0011800D01*
X0096851Y0011619D01*
X0096670Y0011305D01*
X0096356Y0011124D01*
X0096175Y0011100D01*
X0035860Y0011100D01*
X0033858Y0011212D01*
X0029953Y0012104D01*
X0026345Y0013841D01*
X0025455Y0014551D02*
X0096875Y0014551D01*
X0096875Y0012952D02*
X0028191Y0012952D01*
X0033238Y0011354D02*
X0096698Y0011354D01*
X0097278Y0016149D02*
X0023450Y0016149D01*
X0022089Y0017748D02*
X0098547Y0017748D01*
X0098027Y0017448D02*
X0098027Y0017448D01*
X0100023Y0018600D02*
X0100023Y0018600D01*
X0117668Y0036749D02*
X0118624Y0035793D01*
X0119874Y0035275D01*
X0121226Y0035275D01*
X0122476Y0035793D01*
X0122758Y0036075D01*
X0140442Y0036075D01*
X0141398Y0036471D01*
X0142129Y0037202D01*
X0162754Y0057827D01*
X0163150Y0058783D01*
X0163150Y0065842D01*
X0163432Y0066124D01*
X0163950Y0067374D01*
X0163950Y0068726D01*
X0163495Y0069825D01*
X0185098Y0069825D01*
X0194996Y0059927D01*
X0195727Y0059196D01*
X0196155Y0059019D01*
X0195125Y0057988D01*
X0195125Y0054012D01*
X0197937Y0051200D01*
X0201913Y0051200D01*
X0204725Y0054012D01*
X0204725Y0057988D01*
X0203913Y0058800D01*
X0205737Y0058800D01*
X0207937Y0056600D01*
X0211913Y0056600D01*
X0214725Y0059412D01*
X0214725Y0063388D01*
X0211913Y0066200D01*
X0207937Y0066200D01*
X0205737Y0064000D01*
X0203913Y0064000D01*
X0204725Y0064812D01*
X0204725Y0068788D01*
X0203913Y0069600D01*
X0205737Y0069600D01*
X0207937Y0067400D01*
X0211913Y0067400D01*
X0214725Y0070212D01*
X0214725Y0074188D01*
X0211913Y0077000D01*
X0207937Y0077000D01*
X0205737Y0074800D01*
X0203913Y0074800D01*
X0204725Y0075612D01*
X0204725Y0079588D01*
X0201913Y0082400D01*
X0197937Y0082400D01*
X0195125Y0079588D01*
X0195125Y0075612D01*
X0195937Y0074800D01*
X0192252Y0074800D01*
X0189404Y0077648D01*
X0188673Y0078379D01*
X0187717Y0078775D01*
X0155033Y0078775D01*
X0154077Y0078379D01*
X0153346Y0077648D01*
X0151412Y0075714D01*
X0151146Y0075714D01*
X0150025Y0075250D01*
X0150025Y0085442D01*
X0149629Y0086398D01*
X0142648Y0093379D01*
X0141692Y0093775D01*
X0131908Y0093775D01*
X0130952Y0093379D01*
X0127598Y0090025D01*
X0118158Y0090025D01*
X0117202Y0089629D01*
X0115327Y0087754D01*
X0114596Y0087023D01*
X0114200Y0086067D01*
X0114200Y0081283D01*
X0114596Y0080327D01*
X0117950Y0076973D01*
X0117950Y0070726D01*
X0117762Y0070538D01*
X0117261Y0069329D01*
X0117261Y0068021D01*
X0117762Y0066812D01*
X0118687Y0065887D01*
X0119896Y0065386D01*
X0121204Y0065386D01*
X0122413Y0065887D01*
X0123338Y0066812D01*
X0123839Y0068021D01*
X0123839Y0069329D01*
X0123338Y0070538D01*
X0123150Y0070726D01*
X0123150Y0078567D01*
X0122754Y0079523D01*
X0122023Y0080254D01*
X0121690Y0080587D01*
X0122413Y0080887D01*
X0122601Y0081075D01*
X0130442Y0081075D01*
X0131398Y0081471D01*
X0132013Y0082086D01*
X0132013Y0078562D01*
X0134824Y0075750D01*
X0138801Y0075750D01*
X0141075Y0078024D01*
X0141075Y0073076D01*
X0138801Y0075350D01*
X0134824Y0075350D01*
X0132013Y0072538D01*
X0132013Y0068562D01*
X0134824Y0065750D01*
X0138801Y0065750D01*
X0141487Y0068436D01*
X0142261Y0067662D01*
X0142261Y0067396D01*
X0142762Y0066187D01*
X0143687Y0065262D01*
X0144896Y0064761D01*
X0146204Y0064761D01*
X0147413Y0065262D01*
X0148050Y0065899D01*
X0148687Y0065262D01*
X0149896Y0064761D01*
X0151204Y0064761D01*
X0152413Y0065262D01*
X0152950Y0065799D01*
X0152950Y0060377D01*
X0141612Y0049039D01*
X0141612Y0052538D01*
X0138801Y0055350D01*
X0134824Y0055350D01*
X0132013Y0052538D01*
X0132013Y0048562D01*
X0134299Y0046275D01*
X0122758Y0046275D01*
X0122476Y0046557D01*
X0121226Y0047075D01*
X0119874Y0047075D01*
X0118624Y0046557D01*
X0117668Y0045601D01*
X0117150Y0044351D01*
X0117150Y0042999D01*
X0117668Y0041749D01*
X0118242Y0041175D01*
X0117668Y0040601D01*
X0117150Y0039351D01*
X0117150Y0037999D01*
X0117668Y0036749D01*
X0117593Y0036930D02*
X0038024Y0036930D01*
X0038024Y0036439D02*
X0036791Y0033462D01*
X0034513Y0031184D01*
X0031536Y0029951D01*
X0028314Y0029951D01*
X0025337Y0031184D01*
X0023059Y0033462D01*
X0021826Y0036439D01*
X0021826Y0039661D01*
X0023059Y0042638D01*
X0025337Y0044916D01*
X0028314Y0046149D01*
X0031536Y0046149D01*
X0034513Y0044916D01*
X0036791Y0042638D01*
X0038024Y0039661D01*
X0038024Y0036439D01*
X0037565Y0035332D02*
X0119737Y0035332D01*
X0121363Y0035332D02*
X0154780Y0035332D01*
X0156378Y0036930D02*
X0141857Y0036930D01*
X0143455Y0038529D02*
X0157977Y0038529D01*
X0159575Y0040127D02*
X0145054Y0040127D01*
X0146653Y0041726D02*
X0161174Y0041726D01*
X0162772Y0043324D02*
X0148251Y0043324D01*
X0149850Y0044923D02*
X0164371Y0044923D01*
X0165969Y0046521D02*
X0151448Y0046521D01*
X0153047Y0048120D02*
X0167568Y0048120D01*
X0169166Y0049718D02*
X0154645Y0049718D01*
X0156244Y0051317D02*
X0170765Y0051317D01*
X0172363Y0052915D02*
X0157842Y0052915D01*
X0159441Y0054514D02*
X0184705Y0054514D01*
X0184592Y0054400D02*
X0174408Y0054400D01*
X0173452Y0054004D01*
X0145273Y0025825D01*
X0144874Y0025825D01*
X0143624Y0025307D01*
X0142668Y0024351D01*
X0142150Y0023101D01*
X0142150Y0021749D01*
X0142668Y0020499D01*
X0143624Y0019543D01*
X0144874Y0019025D01*
X0146226Y0019025D01*
X0147476Y0019543D01*
X0148432Y0020499D01*
X0148950Y0021749D01*
X0148950Y0022148D01*
X0176002Y0049200D01*
X0184592Y0049200D01*
X0184874Y0048918D01*
X0186124Y0048400D01*
X0187476Y0048400D01*
X0188726Y0048918D01*
X0189682Y0049874D01*
X0190200Y0051124D01*
X0190200Y0052476D01*
X0189682Y0053726D01*
X0188726Y0054682D01*
X0187476Y0055200D01*
X0186124Y0055200D01*
X0184874Y0054682D01*
X0184592Y0054400D01*
X0188895Y0054514D02*
X0195125Y0054514D01*
X0195125Y0056112D02*
X0161039Y0056112D01*
X0162638Y0057711D02*
X0195125Y0057711D01*
X0195614Y0059309D02*
X0163150Y0059309D01*
X0163150Y0060908D02*
X0194015Y0060908D01*
X0194996Y0059927D02*
X0194996Y0059927D01*
X0197200Y0061400D02*
X0209925Y0061400D01*
X0214725Y0060908D02*
X0236875Y0060908D01*
X0236875Y0062506D02*
X0214725Y0062506D01*
X0214008Y0064105D02*
X0236875Y0064105D01*
X0236875Y0065703D02*
X0212410Y0065703D01*
X0207440Y0065703D02*
X0204725Y0065703D01*
X0204018Y0064105D02*
X0205842Y0064105D01*
X0204725Y0067302D02*
X0236875Y0067302D01*
X0236875Y0068900D02*
X0213413Y0068900D01*
X0214725Y0070499D02*
X0236875Y0070499D01*
X0236875Y0072097D02*
X0214725Y0072097D01*
X0214725Y0073696D02*
X0236875Y0073696D01*
X0236875Y0075294D02*
X0213619Y0075294D01*
X0212020Y0076893D02*
X0236875Y0076893D01*
X0236875Y0078491D02*
X0212205Y0078491D01*
X0211913Y0078200D02*
X0214725Y0081012D01*
X0214725Y0084988D01*
X0211913Y0087800D01*
X0207937Y0087800D01*
X0205125Y0084988D01*
X0205125Y0081012D01*
X0207937Y0078200D01*
X0211913Y0078200D01*
X0213803Y0080090D02*
X0236875Y0080090D01*
X0236875Y0081688D02*
X0214725Y0081688D01*
X0214725Y0083287D02*
X0236875Y0083287D01*
X0236875Y0084885D02*
X0214725Y0084885D01*
X0213229Y0086484D02*
X0236875Y0086484D01*
X0236875Y0088082D02*
X0204725Y0088082D01*
X0204725Y0088200D02*
X0200125Y0088200D01*
X0200125Y0088600D01*
X0199725Y0088600D01*
X0199725Y0093200D01*
X0197937Y0093200D01*
X0195125Y0090388D01*
X0195125Y0088600D01*
X0199725Y0088600D01*
X0199725Y0088200D01*
X0195125Y0088200D01*
X0195125Y0086412D01*
X0197937Y0083600D01*
X0199725Y0083600D01*
X0199725Y0088200D01*
X0200125Y0088200D01*
X0200125Y0083600D01*
X0201913Y0083600D01*
X0204725Y0086412D01*
X0204725Y0088200D01*
X0204725Y0088600D02*
X0200125Y0088600D01*
X0200125Y0093200D01*
X0201913Y0093200D01*
X0204725Y0090388D01*
X0204725Y0088600D01*
X0204725Y0089681D02*
X0236875Y0089681D01*
X0236875Y0091279D02*
X0203834Y0091279D01*
X0202235Y0092878D02*
X0236875Y0092878D01*
X0236875Y0094476D02*
X0038024Y0094476D01*
X0038024Y0096075D02*
X0236875Y0096075D01*
X0236875Y0097673D02*
X0037812Y0097673D01*
X0037585Y0092878D02*
X0130451Y0092878D01*
X0128852Y0091279D02*
X0036923Y0091279D01*
X0035510Y0089681D02*
X0117327Y0089681D01*
X0115655Y0088082D02*
X0033061Y0088082D01*
X0026789Y0088082D02*
X0017975Y0088082D01*
X0017975Y0086484D02*
X0114373Y0086484D01*
X0114200Y0084885D02*
X0017975Y0084885D01*
X0017975Y0083287D02*
X0114200Y0083287D01*
X0116800Y0081800D02*
X0116800Y0085550D01*
X0118675Y0087425D01*
X0128675Y0087425D01*
X0132425Y0091175D01*
X0141175Y0091175D01*
X0147425Y0084925D01*
X0147425Y0071175D01*
X0150550Y0068050D01*
X0152855Y0065703D02*
X0152950Y0065703D01*
X0152950Y0064105D02*
X0140046Y0064105D01*
X0138801Y0065350D02*
X0137013Y0065350D01*
X0137013Y0060750D01*
X0141612Y0060750D01*
X0141612Y0062538D01*
X0138801Y0065350D01*
X0137013Y0064105D02*
X0136612Y0064105D01*
X0136612Y0065350D02*
X0134824Y0065350D01*
X0132013Y0062538D01*
X0132013Y0060750D01*
X0136612Y0060750D01*
X0136612Y0060350D01*
X0132013Y0060350D01*
X0132013Y0058562D01*
X0134824Y0055750D01*
X0136612Y0055750D01*
X0136612Y0060350D01*
X0137013Y0060350D01*
X0137013Y0060750D01*
X0136612Y0060750D01*
X0136612Y0065350D01*
X0133579Y0064105D02*
X0098584Y0064105D01*
X0098584Y0064073D02*
X0098584Y0064428D01*
X0098584Y0064783D01*
X0098446Y0065478D01*
X0098174Y0066133D01*
X0097780Y0066723D01*
X0097418Y0067085D01*
X0097780Y0067448D01*
X0098174Y0068038D01*
X0098446Y0068693D01*
X0098584Y0069388D01*
X0098584Y0069743D01*
X0098584Y0070097D01*
X0098446Y0070793D01*
X0098174Y0071448D01*
X0097780Y0072038D01*
X0097279Y0072539D01*
X0096689Y0072933D01*
X0096034Y0073205D01*
X0095339Y0073343D01*
X0094984Y0073343D01*
X0094629Y0073343D01*
X0093934Y0073205D01*
X0093279Y0072933D01*
X0092689Y0072539D01*
X0092327Y0072177D01*
X0091964Y0072539D01*
X0091374Y0072933D01*
X0090719Y0073205D01*
X0090024Y0073343D01*
X0089669Y0073343D01*
X0089315Y0073343D01*
X0088619Y0073205D01*
X0087964Y0072933D01*
X0087374Y0072539D01*
X0087012Y0072177D01*
X0086649Y0072539D01*
X0086059Y0072933D01*
X0085404Y0073205D01*
X0084709Y0073343D01*
X0084354Y0073343D01*
X0084000Y0073343D01*
X0083304Y0073205D01*
X0082649Y0072933D01*
X0082059Y0072539D01*
X0081558Y0072038D01*
X0081164Y0071448D01*
X0080892Y0070793D01*
X0080754Y0070097D01*
X0080754Y0069743D01*
X0084354Y0069743D01*
X0084354Y0069743D01*
X0084354Y0073343D01*
X0084354Y0069743D01*
X0084354Y0069743D01*
X0080754Y0069743D01*
X0080754Y0069388D01*
X0080892Y0068693D01*
X0081164Y0068038D01*
X0081558Y0067448D01*
X0081920Y0067085D01*
X0081558Y0066723D01*
X0081164Y0066133D01*
X0080892Y0065478D01*
X0080754Y0064783D01*
X0080754Y0064428D01*
X0084354Y0064428D01*
X0084354Y0064428D01*
X0084354Y0069743D01*
X0084354Y0069743D01*
X0089669Y0069743D01*
X0089669Y0073343D01*
X0089669Y0069743D01*
X0089669Y0069743D01*
X0089669Y0069743D01*
X0086069Y0069743D01*
X0084354Y0069743D01*
X0084354Y0069743D01*
X0084354Y0066143D01*
X0084354Y0064428D01*
X0084354Y0064428D01*
X0080754Y0064428D01*
X0080754Y0064073D01*
X0080892Y0063378D01*
X0081164Y0062723D01*
X0081558Y0062133D01*
X0081920Y0061770D01*
X0081558Y0061408D01*
X0081164Y0060818D01*
X0080892Y0060163D01*
X0080754Y0059468D01*
X0080754Y0059113D01*
X0084354Y0059113D01*
X0084354Y0059113D01*
X0080754Y0059113D01*
X0080754Y0058758D01*
X0080892Y0058063D01*
X0081164Y0057408D01*
X0081558Y0056818D01*
X0082059Y0056317D01*
X0082649Y0055923D01*
X0083304Y0055651D01*
X0084000Y0055513D01*
X0084354Y0055513D01*
X0084354Y0059113D01*
X0084354Y0064428D01*
X0084354Y0064428D01*
X0089669Y0064428D01*
X0089669Y0064428D01*
X0089669Y0069743D01*
X0094984Y0069743D01*
X0094984Y0073343D01*
X0094984Y0069743D01*
X0094984Y0069743D01*
X0094984Y0069743D01*
X0098584Y0069743D01*
X0094984Y0069743D01*
X0094984Y0069743D01*
X0093269Y0069743D01*
X0089669Y0069743D01*
X0089669Y0069743D01*
X0089669Y0069743D01*
X0089669Y0066143D01*
X0089669Y0064428D01*
X0089669Y0064428D01*
X0086069Y0064428D01*
X0084354Y0064428D01*
X0084354Y0064428D01*
X0084354Y0060828D01*
X0084354Y0059113D01*
X0084354Y0059113D01*
X0084354Y0059113D01*
X0084354Y0055513D01*
X0084709Y0055513D01*
X0085404Y0055651D01*
X0086059Y0055923D01*
X0086649Y0056317D01*
X0087012Y0056679D01*
X0087374Y0056317D01*
X0087964Y0055923D01*
X0088619Y0055651D01*
X0089315Y0055513D01*
X0089669Y0055513D01*
X0089669Y0059113D01*
X0089669Y0059113D01*
X0084354Y0059113D01*
X0084354Y0059113D01*
X0086069Y0059113D01*
X0089669Y0059113D01*
X0089669Y0064428D01*
X0089669Y0064428D01*
X0094984Y0064428D01*
X0094984Y0069743D01*
X0094984Y0069743D01*
X0094984Y0068028D01*
X0094984Y0064428D01*
X0094984Y0064428D01*
X0094984Y0064428D01*
X0093269Y0064428D01*
X0089669Y0064428D01*
X0089669Y0064428D01*
X0089669Y0060828D01*
X0089669Y0059113D01*
X0089669Y0059113D01*
X0089669Y0059113D01*
X0089669Y0055513D01*
X0090024Y0055513D01*
X0090719Y0055651D01*
X0091374Y0055923D01*
X0091964Y0056317D01*
X0092327Y0056679D01*
X0092689Y0056317D01*
X0093279Y0055923D01*
X0093934Y0055651D01*
X0094629Y0055513D01*
X0094984Y0055513D01*
X0094984Y0059113D01*
X0094984Y0059113D01*
X0089669Y0059113D01*
X0089669Y0059113D01*
X0091384Y0059113D01*
X0094984Y0059113D01*
X0094984Y0064428D01*
X0098584Y0064428D01*
X0094984Y0064428D01*
X0094984Y0064428D01*
X0094984Y0064428D01*
X0094984Y0062713D01*
X0094984Y0059113D01*
X0094984Y0059113D01*
X0094984Y0059113D01*
X0098584Y0059113D01*
X0098584Y0059468D01*
X0098446Y0060163D01*
X0098174Y0060818D01*
X0097780Y0061408D01*
X0097418Y0061770D01*
X0097780Y0062133D01*
X0098174Y0062723D01*
X0098446Y0063378D01*
X0098584Y0064073D01*
X0098352Y0065703D02*
X0119130Y0065703D01*
X0121970Y0065703D02*
X0143245Y0065703D01*
X0142300Y0067302D02*
X0140352Y0067302D01*
X0143675Y0069925D02*
X0145550Y0068050D01*
X0143675Y0069925D02*
X0143675Y0083675D01*
X0139925Y0087425D01*
X0133675Y0087425D01*
X0129925Y0083675D01*
X0120550Y0083675D01*
X0116800Y0081800D02*
X0120550Y0078050D01*
X0120550Y0068675D01*
X0123541Y0067302D02*
X0133273Y0067302D01*
X0132013Y0068900D02*
X0123839Y0068900D01*
X0123355Y0070499D02*
X0132013Y0070499D01*
X0132013Y0072097D02*
X0123150Y0072097D01*
X0123150Y0073696D02*
X0133170Y0073696D01*
X0134769Y0075294D02*
X0123150Y0075294D01*
X0123150Y0076893D02*
X0133681Y0076893D01*
X0132083Y0078491D02*
X0123150Y0078491D01*
X0122187Y0080090D02*
X0132013Y0080090D01*
X0132013Y0081688D02*
X0131615Y0081688D01*
X0139944Y0076893D02*
X0141075Y0076893D01*
X0141075Y0075294D02*
X0138856Y0075294D01*
X0140455Y0073696D02*
X0141075Y0073696D01*
X0150025Y0075294D02*
X0150133Y0075294D01*
X0150025Y0076893D02*
X0152591Y0076893D01*
X0154348Y0078491D02*
X0150025Y0078491D01*
X0150025Y0080090D02*
X0195627Y0080090D01*
X0195125Y0078491D02*
X0188402Y0078491D01*
X0190159Y0076893D02*
X0195125Y0076893D01*
X0195442Y0075294D02*
X0191758Y0075294D01*
X0191175Y0072200D02*
X0187200Y0076175D01*
X0155550Y0076175D01*
X0151800Y0072425D01*
X0157425Y0072425D02*
X0186175Y0072425D01*
X0197200Y0061400D01*
X0192417Y0062506D02*
X0163150Y0062506D01*
X0163150Y0064105D02*
X0190818Y0064105D01*
X0189220Y0065703D02*
X0163150Y0065703D01*
X0163920Y0067302D02*
X0187621Y0067302D01*
X0186023Y0068900D02*
X0163878Y0068900D01*
X0160550Y0068050D02*
X0160550Y0059300D01*
X0139925Y0038675D01*
X0120550Y0038675D01*
X0117471Y0040127D02*
X0037831Y0040127D01*
X0038024Y0038529D02*
X0117150Y0038529D01*
X0117691Y0041726D02*
X0037169Y0041726D01*
X0036105Y0043324D02*
X0117150Y0043324D01*
X0117387Y0044923D02*
X0034497Y0044923D01*
X0025353Y0044923D02*
X0017975Y0044923D01*
X0017975Y0046521D02*
X0118588Y0046521D01*
X0122512Y0046521D02*
X0134053Y0046521D01*
X0132455Y0048120D02*
X0017975Y0048120D01*
X0017975Y0049718D02*
X0132013Y0049718D01*
X0132013Y0051317D02*
X0017975Y0051317D01*
X0017975Y0052915D02*
X0132389Y0052915D01*
X0133988Y0054514D02*
X0017975Y0054514D01*
X0017975Y0056112D02*
X0082365Y0056112D01*
X0084354Y0056112D02*
X0084354Y0056112D01*
X0084354Y0057711D02*
X0084354Y0057711D01*
X0086343Y0056112D02*
X0087680Y0056112D01*
X0089669Y0056112D02*
X0089669Y0056112D01*
X0089669Y0057711D02*
X0089669Y0057711D01*
X0091658Y0056112D02*
X0092995Y0056112D01*
X0094984Y0056112D02*
X0094984Y0056112D01*
X0094984Y0055513D02*
X0095339Y0055513D01*
X0096034Y0055651D01*
X0096689Y0055923D01*
X0097279Y0056317D01*
X0097780Y0056818D01*
X0098174Y0057408D01*
X0098446Y0058063D01*
X0098584Y0058758D01*
X0098584Y0059113D01*
X0094984Y0059113D01*
X0094984Y0059113D01*
X0094984Y0055513D01*
X0096973Y0056112D02*
X0134462Y0056112D01*
X0136612Y0056112D02*
X0137013Y0056112D01*
X0137013Y0055750D02*
X0138801Y0055750D01*
X0141612Y0058562D01*
X0141612Y0060350D01*
X0137013Y0060350D01*
X0137013Y0055750D01*
X0137013Y0057711D02*
X0136612Y0057711D01*
X0139163Y0056112D02*
X0148685Y0056112D01*
X0147087Y0054514D02*
X0139637Y0054514D01*
X0141236Y0052915D02*
X0145488Y0052915D01*
X0143890Y0051317D02*
X0141612Y0051317D01*
X0141612Y0049718D02*
X0142291Y0049718D01*
X0139925Y0043675D02*
X0120550Y0043675D01*
X0139925Y0043675D02*
X0155550Y0059300D01*
X0155550Y0068050D01*
X0148245Y0065703D02*
X0147855Y0065703D01*
X0152950Y0062506D02*
X0141612Y0062506D01*
X0141612Y0060908D02*
X0152950Y0060908D01*
X0151882Y0059309D02*
X0141612Y0059309D01*
X0140761Y0057711D02*
X0150284Y0057711D01*
X0137013Y0059309D02*
X0136612Y0059309D01*
X0136612Y0060908D02*
X0137013Y0060908D01*
X0137013Y0062506D02*
X0136612Y0062506D01*
X0132013Y0062506D02*
X0098030Y0062506D01*
X0098115Y0060908D02*
X0132013Y0060908D01*
X0132013Y0059309D02*
X0098584Y0059309D01*
X0094984Y0059309D02*
X0094984Y0059309D01*
X0094984Y0060908D02*
X0094984Y0060908D01*
X0094984Y0062506D02*
X0094984Y0062506D01*
X0094984Y0064105D02*
X0094984Y0064105D01*
X0094984Y0065703D02*
X0094984Y0065703D01*
X0094984Y0067302D02*
X0094984Y0067302D01*
X0094984Y0068900D02*
X0094984Y0068900D01*
X0094984Y0070499D02*
X0094984Y0070499D01*
X0094984Y0072097D02*
X0094984Y0072097D01*
X0097721Y0072097D02*
X0117950Y0072097D01*
X0117950Y0073696D02*
X0017975Y0073696D01*
X0017975Y0072097D02*
X0081617Y0072097D01*
X0080834Y0070499D02*
X0017975Y0070499D01*
X0017975Y0068900D02*
X0080851Y0068900D01*
X0081704Y0067302D02*
X0017975Y0067302D01*
X0017975Y0065703D02*
X0080986Y0065703D01*
X0080754Y0064105D02*
X0017975Y0064105D01*
X0017975Y0062506D02*
X0081309Y0062506D01*
X0081224Y0060908D02*
X0017975Y0060908D01*
X0017975Y0059309D02*
X0080754Y0059309D01*
X0084354Y0059309D02*
X0084354Y0059309D01*
X0084354Y0060908D02*
X0084354Y0060908D01*
X0084354Y0062506D02*
X0084354Y0062506D01*
X0084354Y0064105D02*
X0084354Y0064105D01*
X0084354Y0065703D02*
X0084354Y0065703D01*
X0084354Y0067302D02*
X0084354Y0067302D01*
X0084354Y0068900D02*
X0084354Y0068900D01*
X0084354Y0070499D02*
X0084354Y0070499D01*
X0084354Y0072097D02*
X0084354Y0072097D01*
X0089669Y0072097D02*
X0089669Y0072097D01*
X0089669Y0070499D02*
X0089669Y0070499D01*
X0089669Y0068900D02*
X0089669Y0068900D01*
X0089669Y0067302D02*
X0089669Y0067302D01*
X0089669Y0065703D02*
X0089669Y0065703D01*
X0089669Y0064105D02*
X0089669Y0064105D01*
X0089669Y0062506D02*
X0089669Y0062506D01*
X0089669Y0060908D02*
X0089669Y0060908D01*
X0089669Y0059309D02*
X0089669Y0059309D01*
X0094984Y0057711D02*
X0094984Y0057711D01*
X0098300Y0057711D02*
X0132864Y0057711D01*
X0117559Y0067302D02*
X0097634Y0067302D01*
X0098487Y0068900D02*
X0117261Y0068900D01*
X0117745Y0070499D02*
X0098504Y0070499D01*
X0114833Y0080090D02*
X0017975Y0080090D01*
X0017975Y0081688D02*
X0114200Y0081688D01*
X0116432Y0078491D02*
X0017975Y0078491D01*
X0017975Y0076893D02*
X0117950Y0076893D01*
X0117950Y0075294D02*
X0017975Y0075294D01*
X0017975Y0089681D02*
X0024340Y0089681D01*
X0022927Y0091279D02*
X0017975Y0091279D01*
X0017975Y0092878D02*
X0022265Y0092878D01*
X0021826Y0094476D02*
X0017975Y0094476D01*
X0017975Y0096075D02*
X0021826Y0096075D01*
X0022038Y0097673D02*
X0017975Y0097673D01*
X0017975Y0057711D02*
X0081038Y0057711D01*
X0036903Y0033733D02*
X0153181Y0033733D01*
X0151583Y0032134D02*
X0035464Y0032134D01*
X0032949Y0030536D02*
X0149984Y0030536D01*
X0148386Y0028937D02*
X0017978Y0028937D01*
X0017975Y0030536D02*
X0026901Y0030536D01*
X0024386Y0032134D02*
X0017975Y0032134D01*
X0017975Y0033733D02*
X0022947Y0033733D01*
X0022284Y0035332D02*
X0017975Y0035332D01*
X0017975Y0036930D02*
X0021826Y0036930D01*
X0021826Y0038529D02*
X0017975Y0038529D01*
X0017975Y0040127D02*
X0022019Y0040127D01*
X0022681Y0041726D02*
X0017975Y0041726D01*
X0017975Y0043324D02*
X0023745Y0043324D01*
X0018067Y0027339D02*
X0146787Y0027339D01*
X0144670Y0025740D02*
X0018371Y0025740D01*
X0018736Y0024142D02*
X0142581Y0024142D01*
X0142150Y0022543D02*
X0019236Y0022543D01*
X0020006Y0020945D02*
X0142483Y0020945D01*
X0144098Y0019346D02*
X0020815Y0019346D01*
X0145550Y0022425D02*
X0174925Y0051800D01*
X0186800Y0051800D01*
X0190018Y0052915D02*
X0196222Y0052915D01*
X0197820Y0051317D02*
X0190200Y0051317D01*
X0189526Y0049718D02*
X0197655Y0049718D01*
X0197937Y0050000D02*
X0195125Y0047188D01*
X0195125Y0043212D01*
X0197937Y0040400D01*
X0201913Y0040400D01*
X0204725Y0043212D01*
X0204725Y0047188D01*
X0201913Y0050000D01*
X0197937Y0050000D01*
X0202195Y0049718D02*
X0205125Y0049718D01*
X0205125Y0048612D02*
X0207937Y0045800D01*
X0211913Y0045800D01*
X0214725Y0048612D01*
X0214725Y0052588D01*
X0211913Y0055400D01*
X0207937Y0055400D01*
X0205125Y0052588D01*
X0205125Y0048612D01*
X0205617Y0048120D02*
X0203794Y0048120D01*
X0204725Y0046521D02*
X0207216Y0046521D01*
X0204725Y0044923D02*
X0236875Y0044923D01*
X0236875Y0046521D02*
X0212634Y0046521D01*
X0214233Y0048120D02*
X0236875Y0048120D01*
X0236875Y0049718D02*
X0214725Y0049718D01*
X0214725Y0051317D02*
X0236875Y0051317D01*
X0236875Y0052915D02*
X0214398Y0052915D01*
X0212800Y0054514D02*
X0236875Y0054514D01*
X0236875Y0056112D02*
X0204725Y0056112D01*
X0204725Y0054514D02*
X0207050Y0054514D01*
X0205452Y0052915D02*
X0203628Y0052915D01*
X0205125Y0051317D02*
X0202030Y0051317D01*
X0196056Y0048120D02*
X0174922Y0048120D01*
X0173323Y0046521D02*
X0195125Y0046521D01*
X0195125Y0044923D02*
X0171725Y0044923D01*
X0170126Y0043324D02*
X0195125Y0043324D01*
X0196611Y0041726D02*
X0168528Y0041726D01*
X0166929Y0040127D02*
X0236875Y0040127D01*
X0236875Y0038529D02*
X0165330Y0038529D01*
X0163732Y0036930D02*
X0236875Y0036930D01*
X0236875Y0035332D02*
X0162133Y0035332D01*
X0160535Y0033733D02*
X0236875Y0033733D01*
X0236875Y0032134D02*
X0158936Y0032134D01*
X0157338Y0030536D02*
X0236875Y0030536D01*
X0236875Y0028937D02*
X0207831Y0028937D01*
X0211483Y0027339D02*
X0236875Y0027339D01*
X0236875Y0025740D02*
X0213372Y0025740D01*
X0214716Y0024142D02*
X0236875Y0024142D01*
X0236875Y0022543D02*
X0215639Y0022543D01*
X0216218Y0020945D02*
X0236875Y0020945D01*
X0236875Y0019346D02*
X0216647Y0019346D01*
X0216725Y0017748D02*
X0236875Y0017748D01*
X0236875Y0016149D02*
X0216725Y0016149D01*
X0216351Y0014551D02*
X0236875Y0014551D01*
X0236875Y0012952D02*
X0215923Y0012952D01*
X0215002Y0011354D02*
X0236875Y0011354D01*
X0236875Y0009755D02*
X0213868Y0009755D01*
X0195982Y0009755D02*
X0179475Y0009755D01*
X0179475Y0011354D02*
X0194848Y0011354D01*
X0193927Y0012952D02*
X0179475Y0012952D01*
X0179475Y0014551D02*
X0193499Y0014551D01*
X0193125Y0016149D02*
X0179072Y0016149D01*
X0178323Y0017448D02*
X0178323Y0017448D01*
X0178323Y0017448D01*
X0177803Y0017748D02*
X0193125Y0017748D01*
X0193203Y0019346D02*
X0147002Y0019346D01*
X0148617Y0020945D02*
X0193632Y0020945D01*
X0194211Y0022543D02*
X0149345Y0022543D01*
X0150944Y0024142D02*
X0195134Y0024142D01*
X0196478Y0025740D02*
X0152542Y0025740D01*
X0154141Y0027339D02*
X0198367Y0027339D01*
X0202019Y0028937D02*
X0155739Y0028937D01*
X0203239Y0041726D02*
X0236875Y0041726D01*
X0236875Y0043324D02*
X0204725Y0043324D01*
X0204725Y0057711D02*
X0206826Y0057711D01*
X0213024Y0057711D02*
X0236875Y0057711D01*
X0236875Y0059309D02*
X0214622Y0059309D01*
X0206437Y0068900D02*
X0204613Y0068900D01*
X0209925Y0072200D02*
X0191175Y0072200D01*
X0204408Y0075294D02*
X0206231Y0075294D01*
X0204725Y0076893D02*
X0207830Y0076893D01*
X0207645Y0078491D02*
X0204725Y0078491D01*
X0204223Y0080090D02*
X0206047Y0080090D01*
X0205125Y0081688D02*
X0202625Y0081688D01*
X0205125Y0083287D02*
X0150025Y0083287D01*
X0150025Y0084885D02*
X0196651Y0084885D01*
X0195125Y0086484D02*
X0149543Y0086484D01*
X0147945Y0088082D02*
X0195125Y0088082D01*
X0195125Y0089681D02*
X0146346Y0089681D01*
X0144748Y0091279D02*
X0196016Y0091279D01*
X0197615Y0092878D02*
X0143149Y0092878D01*
X0150025Y0081688D02*
X0197225Y0081688D01*
X0199725Y0084885D02*
X0200125Y0084885D01*
X0200125Y0086484D02*
X0199725Y0086484D01*
X0199725Y0088082D02*
X0200125Y0088082D01*
X0200125Y0089681D02*
X0199725Y0089681D01*
X0199725Y0091279D02*
X0200125Y0091279D01*
X0200125Y0092878D02*
X0199725Y0092878D01*
X0194300Y0099272D02*
X0236875Y0099272D01*
X0236875Y0100870D02*
X0194300Y0100870D01*
X0194300Y0102469D02*
X0236875Y0102469D01*
X0236875Y0104068D02*
X0194300Y0104068D01*
X0194300Y0105666D02*
X0199397Y0105666D01*
X0197073Y0107265D02*
X0194300Y0107265D01*
X0194300Y0108863D02*
X0195478Y0108863D01*
X0194555Y0110462D02*
X0194300Y0110462D01*
X0210453Y0105666D02*
X0236875Y0105666D01*
X0236875Y0107265D02*
X0212777Y0107265D01*
X0214372Y0108863D02*
X0236875Y0108863D01*
X0236875Y0110462D02*
X0215295Y0110462D01*
X0216059Y0112060D02*
X0236875Y0112060D01*
X0236875Y0113659D02*
X0216487Y0113659D01*
X0216725Y0115257D02*
X0236875Y0115257D01*
X0236875Y0116856D02*
X0216725Y0116856D01*
X0216510Y0118454D02*
X0236875Y0118454D01*
X0236875Y0120053D02*
X0216082Y0120053D01*
X0215346Y0121651D02*
X0236875Y0121651D01*
X0236875Y0123250D02*
X0214423Y0123250D01*
X0212865Y0124848D02*
X0236578Y0124848D01*
X0206621Y0086484D02*
X0204725Y0086484D01*
X0205125Y0084885D02*
X0203199Y0084885D01*
D17*
X0160550Y0068050D03*
X0155550Y0068050D03*
X0186800Y0051800D03*
X0145550Y0022425D03*
X0120550Y0038675D03*
X0120550Y0043675D03*
D18*
X0145550Y0068050D03*
X0150550Y0068050D03*
X0151800Y0072425D03*
X0157425Y0072425D03*
X0120550Y0068675D03*
X0120550Y0083675D03*
M02*
